<svg width="60" height="60" viewBox="0 0 60 60" fill="none" xmlns="http://www.w3.org/2000/svg">
<circle cx="30" cy="30" r="30" fill="white" fill-opacity="0.8"/>
<path d="M30.0472 19.1129C23.872 19.1129 18.8465 23.9533 18.8444 29.902C18.8429 31.8044 19.3597 33.661 20.3395 35.2962L18.75 40.8871L24.6893 39.3869C26.3414 40.2511 28.1784 40.7018 30.0428 40.7006H30.0472C36.2223 40.7006 41.2478 35.8594 41.25 29.9107C41.2515 27.0293 40.0873 24.3169 37.9715 22.2782C35.8565 20.2386 33.044 19.1136 30.0472 19.1129ZM30.0472 38.8781H30.0435C28.3727 38.8781 26.7339 38.4455 25.304 37.6282L24.9629 37.4337L21.4398 38.3236L22.3805 35.0139L22.1591 34.6749C21.2293 33.2568 20.7343 31.5978 20.7351 29.902C20.7373 24.9571 24.915 20.9354 30.0508 20.9354C32.5374 20.9361 34.8752 21.8703 36.6339 23.565C38.3925 25.2598 39.36 27.5134 39.3585 29.91C39.3564 34.8549 35.1794 38.8781 30.0465 38.8781H30.0472ZM35.1547 32.1607C34.8745 32.0265 33.4984 31.374 33.2415 31.2832C32.9852 31.194 32.7987 31.1475 32.6122 31.4175C32.4264 31.6875 31.8893 32.295 31.7267 32.4743C31.5627 32.6543 31.3994 32.6761 31.1192 32.5418C30.839 32.4068 29.9369 32.1223 28.8685 31.2034C28.036 30.4892 27.4742 29.6066 27.3109 29.3359C27.1476 29.0666 27.2935 28.9207 27.4335 28.7865C27.5591 28.6667 27.7137 28.4722 27.8531 28.3147C27.9924 28.1572 28.0389 28.0447 28.1332 27.8647C28.2261 27.6854 28.1797 27.5272 28.1093 27.3929C28.0389 27.2572 27.48 25.9304 27.2456 25.3911C27.0191 24.8657 26.7883 24.9361 26.6163 24.9274C26.453 24.9201 26.2672 24.9179 26.0792 24.9179C25.8941 24.9179 25.59 24.9854 25.3331 25.2554C25.0769 25.5254 24.3532 26.1772 24.3532 27.504C24.3532 28.8315 25.3563 30.1132 25.4964 30.2932C25.6365 30.4725 27.4706 33.1965 30.2787 34.365C30.9465 34.6415 31.4676 34.8078 31.8748 34.9326C32.5454 35.138 33.1558 35.1082 33.6377 35.0393C34.1748 34.9616 35.294 34.3875 35.5263 33.7582C35.76 33.129 35.76 32.589 35.6903 32.4765C35.6221 32.364 35.4348 32.2965 35.1547 32.1607V32.1607Z" fill="black"/>
</svg>
