<svg width="60" height="60" viewBox="0 0 60 60" fill="none" xmlns="http://www.w3.org/2000/svg">
<circle cx="30" cy="30" r="30" fill="white" fill-opacity="0.8"/>
<path fill-rule="evenodd" clip-rule="evenodd" d="M30 18.75C26.9445 18.75 26.562 18.7628 25.362 18.8175C24.1642 18.8723 23.346 19.0627 22.6305 19.341C21.8805 19.623 21.2002 20.0655 20.6377 20.6385C20.0657 21.2004 19.6229 21.8801 19.3403 22.6305C19.0635 23.346 18.8723 24.165 18.8175 25.3628C18.7635 26.562 18.75 26.9438 18.75 30C18.75 33.0562 18.7628 33.438 18.8175 34.638C18.8723 35.8358 19.0627 36.654 19.341 37.3695C19.623 38.1195 20.0655 38.7997 20.6385 39.3622C21.2004 39.9343 21.8801 40.3771 22.6305 40.6597C23.346 40.9373 24.1642 41.1278 25.362 41.1825C26.562 41.2372 26.9445 41.25 30 41.25C33.0555 41.25 33.438 41.2372 34.638 41.1825C35.8358 41.1278 36.654 40.9373 37.3695 40.659C38.1195 40.377 38.7997 39.9345 39.3622 39.3615C39.9343 38.7997 40.3771 38.1199 40.6597 37.3695C40.9373 36.654 41.1278 35.8358 41.1825 34.638C41.2372 33.438 41.25 33.0555 41.25 30C41.25 26.9445 41.2372 26.562 41.1825 25.362C41.1278 24.1642 40.9373 23.346 40.659 22.6305C40.3766 21.8798 39.9338 21.1997 39.3615 20.6377C38.7997 20.0657 38.1199 19.6229 37.3695 19.3403C36.654 19.0635 35.835 18.8723 34.6373 18.8175C33.438 18.7635 33.0562 18.75 30 18.75ZM30 20.7773C33.0037 20.7773 33.36 20.7885 34.5465 20.8425C35.643 20.8928 36.2385 21.075 36.6353 21.2302C37.1602 21.4335 37.5352 21.678 37.929 22.071C38.3228 22.4648 38.5665 22.8397 38.7698 23.3647C38.9242 23.7615 39.1073 24.357 39.1575 25.4535C39.2115 26.64 39.2228 26.9963 39.2228 30C39.2228 33.0037 39.2115 33.36 39.1575 34.5465C39.1073 35.643 38.925 36.2385 38.7698 36.6353C38.5897 37.1239 38.3024 37.566 37.929 37.929C37.5661 38.3025 37.124 38.5898 36.6353 38.7698C36.2385 38.9242 35.643 39.1073 34.5465 39.1575C33.36 39.2115 33.0045 39.2228 30 39.2228C26.9955 39.2228 26.64 39.2115 25.4535 39.1575C24.357 39.1073 23.7615 38.925 23.3647 38.7698C22.8761 38.5897 22.434 38.3024 22.071 37.929C21.6976 37.566 21.4103 37.1239 21.2302 36.6353C21.0757 36.2385 20.8928 35.643 20.8425 34.5465C20.7885 33.36 20.7773 33.0037 20.7773 30C20.7773 26.9963 20.7885 26.64 20.8425 25.4535C20.8928 24.357 21.075 23.7615 21.2302 23.3647C21.4335 22.8397 21.678 22.4648 22.071 22.071C22.434 21.6975 22.8761 21.4102 23.3647 21.2302C23.7615 21.0757 24.357 20.8928 25.4535 20.8425C26.64 20.7885 26.9963 20.7773 30 20.7773Z" fill="black"/>
<path fill-rule="evenodd" clip-rule="evenodd" d="M30 33.7537C29.5071 33.7537 29.019 33.6566 28.5635 33.468C28.1081 33.2794 27.6943 33.0029 27.3457 32.6543C26.9972 32.3057 26.7207 31.8919 26.532 31.4365C26.3434 30.9811 26.2463 30.4929 26.2463 30C26.2463 29.507 26.3434 29.0189 26.532 28.5635C26.7207 28.1081 26.9972 27.6942 27.3457 27.3457C27.6943 26.9971 28.1081 26.7206 28.5635 26.532C29.019 26.3433 29.5071 26.2462 30 26.2462C30.9956 26.2462 31.9504 26.6417 32.6543 27.3457C33.3583 28.0496 33.7538 29.0044 33.7538 30C33.7538 30.9955 33.3583 31.9503 32.6543 32.6543C31.9504 33.3582 30.9956 33.7537 30 33.7537ZM30 24.2175C28.4664 24.2175 26.9956 24.8267 25.9112 25.9111C24.8268 26.9956 24.2175 28.4664 24.2175 30C24.2175 31.5336 24.8268 33.0044 25.9112 34.0888C26.9956 35.1733 28.4664 35.7825 30 35.7825C31.5336 35.7825 33.0044 35.1733 34.0889 34.0888C35.1733 33.0044 35.7825 31.5336 35.7825 30C35.7825 28.4664 35.1733 26.9956 34.0889 25.9111C33.0044 24.8267 31.5336 24.2175 30 24.2175ZM37.4648 24.1125C37.4648 24.475 37.3208 24.8227 37.0644 25.079C36.8081 25.3353 36.4604 25.4794 36.0979 25.4794C35.7354 25.4794 35.3877 25.3353 35.1314 25.079C34.875 24.8227 34.731 24.475 34.731 24.1125C34.731 23.75 34.875 23.4023 35.1314 23.146C35.3877 22.8896 35.7354 22.7456 36.0979 22.7456C36.4604 22.7456 36.8081 22.8896 37.0644 23.146C37.3208 23.4023 37.4648 23.75 37.4648 24.1125Z" fill="black"/>
</svg>
