<svg width="60" height="60" viewBox="0 0 60 60" fill="none" xmlns="http://www.w3.org/2000/svg">
<circle cx="30" cy="30" r="30" fill="white" fill-opacity="0.8"/>
<path fill-rule="evenodd" clip-rule="evenodd" d="M17.5124 28.7489C23.418 26.2087 27.3559 24.534 29.3263 23.7249C34.9521 21.4147 36.1211 21.0134 36.883 21.0001C37.0506 20.9972 37.4253 21.0382 37.668 21.2327C37.873 21.3968 37.9294 21.6186 37.9563 21.7743C37.9833 21.93 38.0169 22.2846 37.9902 22.5616C37.6854 25.7241 36.3662 33.3986 35.6951 36.9406C35.4111 38.4394 34.852 38.9419 34.3107 38.9911C33.1343 39.098 32.2409 38.2235 31.1015 37.4861C29.3186 36.3323 28.3113 35.614 26.5807 34.488C24.5806 33.1868 25.8772 32.4716 27.017 31.3027C27.3153 30.9969 32.4986 26.3423 32.5989 25.92C32.6115 25.8672 32.6231 25.6704 32.5047 25.5664C32.3862 25.4625 32.2114 25.498 32.0852 25.5263C31.9064 25.5664 29.0581 27.425 23.5404 31.1022C22.7319 31.6503 21.9996 31.9174 21.3435 31.9034C20.6202 31.888 19.2288 31.4996 18.1945 31.1677C16.9258 30.7606 15.9175 30.5453 16.0053 29.8539C16.0511 29.4937 16.5534 29.1254 17.5124 28.7489Z" fill="black"/>
</svg>
