<svg width="377" height="96" viewBox="0 0 377 96" fill="none" xmlns="http://www.w3.org/2000/svg">
<path d="M129.932 5.1545C131.503 5.1545 132.833 5.20266 133.923 5.29898C135.045 5.3632 136.07 5.47557 137 5.63611C137.929 5.79665 138.891 6.0214 139.884 6.31037L139.307 11.7044C138.25 11.6402 137.272 11.592 136.375 11.5599C135.509 11.5278 134.564 11.5118 133.538 11.5118C132.544 11.4797 131.343 11.4636 129.932 11.4636C128.298 11.4636 127.016 11.7847 126.086 12.4268C125.189 13.069 124.548 14.1927 124.163 15.7981C123.778 17.3714 123.586 19.5547 123.586 22.348C123.586 25.1414 123.778 27.3407 124.163 28.9461C124.548 30.5194 125.189 31.6271 126.086 32.2692C127.016 32.9114 128.298 33.2324 129.932 33.2324C132.144 33.2324 134.003 33.2003 135.509 33.1361C137.016 33.0719 138.506 32.9595 139.98 32.799L140.605 38.193C139.067 38.6746 137.496 39.0118 135.894 39.2044C134.291 39.4292 132.304 39.5415 129.932 39.5415C126.503 39.5415 123.746 38.9957 121.663 37.9041C119.612 36.7803 118.121 34.9662 117.192 32.4619C116.294 29.9575 115.845 26.5862 115.845 22.348C115.845 18.1098 116.294 14.7386 117.192 12.2342C118.121 9.72981 119.612 7.93179 121.663 6.84014C123.746 5.71638 126.503 5.1545 129.932 5.1545Z" fill="white"/>
<path d="M150.36 15.172L151.225 19.8918L151.899 20.5179V38.9636H144.783V15.172H150.36ZM161.947 14.5459L161.274 21.144H159.302C158.181 21.144 157.011 21.3045 155.793 21.6256C154.575 21.9467 153.036 22.4283 151.177 23.0704L150.697 19.0731C152.363 17.5961 154.046 16.4724 155.745 15.7018C157.443 14.9312 159.094 14.5459 160.697 14.5459H161.947Z" fill="white"/>
<path d="M176.175 14.5459C180.182 14.5459 183.05 15.2362 184.781 16.6168C186.544 17.9654 187.425 19.9881 187.425 22.6851C187.457 24.8684 186.913 26.5059 185.791 27.5976C184.669 28.6571 182.73 29.1869 179.973 29.1869H166.704V25.1895H178.002C179.092 25.1895 179.781 24.9648 180.069 24.5153C180.39 24.0337 180.55 23.3755 180.55 22.5407C180.518 21.4169 180.182 20.6463 179.541 20.2289C178.932 19.7794 177.89 19.5547 176.416 19.5547C175.101 19.5547 174.076 19.7313 173.339 20.0844C172.601 20.4376 172.089 21.1119 171.8 22.1072C171.512 23.1025 171.367 24.5474 171.367 26.4417C171.367 28.4324 171.544 29.9735 171.896 31.0652C172.249 32.1247 172.842 32.8632 173.675 33.2806C174.541 33.698 175.726 33.9067 177.233 33.9067C178.323 33.9067 179.669 33.8746 181.271 33.8104C182.906 33.714 184.541 33.5696 186.175 33.3769L186.848 37.7596C185.919 38.2091 184.861 38.5623 183.675 38.8191C182.489 39.076 181.271 39.2526 180.021 39.3489C178.771 39.4773 177.569 39.5415 176.416 39.5415C173.403 39.5415 170.967 39.1081 169.108 38.2412C167.281 37.3422 165.951 35.9776 165.117 34.1475C164.316 32.3174 163.915 29.9735 163.915 27.116C163.915 24.0015 164.332 21.5293 165.165 19.6992C165.999 17.869 167.313 16.5526 169.108 15.7499C170.903 14.9473 173.258 14.5459 176.175 14.5459Z" fill="white"/>
<path d="M204.611 14.5459C206.598 14.5459 208.281 14.8188 209.659 15.3647C211.037 15.8784 212.079 16.7774 212.784 18.0617C213.521 19.3139 213.89 21.0477 213.89 23.2631V38.9636H208.217L207.207 33.8104L206.726 33.0879V23.2149C206.726 22.0912 206.454 21.2724 205.909 20.7587C205.396 20.245 204.403 19.9881 202.928 19.9881C201.71 19.9881 200.188 20.0363 198.361 20.1326C196.534 20.1968 194.659 20.2931 192.736 20.4216L192.063 15.7018C193.216 15.477 194.547 15.2844 196.053 15.1238C197.559 14.9633 199.066 14.8349 200.572 14.7386C202.079 14.6101 203.425 14.5459 204.611 14.5459ZM210.957 24.3226L210.909 28.32L200.332 28.3682C199.467 28.3682 198.842 28.5769 198.457 28.9943C198.104 29.4116 197.928 29.9735 197.928 30.6799V31.8358C197.928 32.6384 198.152 33.2645 198.601 33.714C199.05 34.1314 199.771 34.3401 200.765 34.3401C201.598 34.3401 202.495 34.1635 203.457 33.8104C204.451 33.4572 205.428 32.9595 206.39 32.3174C207.351 31.6752 208.201 30.9207 208.938 30.0538V33.1361C208.649 33.6177 208.217 34.2278 207.64 34.9662C207.095 35.6726 206.39 36.379 205.524 37.0853C204.659 37.7596 203.649 38.3375 202.495 38.8191C201.342 39.3007 200.027 39.5415 198.553 39.5415C197.111 39.5415 195.813 39.2847 194.659 38.771C193.505 38.2572 192.591 37.5027 191.918 36.5074C191.245 35.5121 190.909 34.2759 190.909 32.799V30.3428C190.909 28.4484 191.55 26.9715 192.832 25.9119C194.114 24.8524 195.877 24.3226 198.12 24.3226H210.957Z" fill="white"/>
<path d="M228.761 8.57394V31.3541C228.761 32.221 228.953 32.8471 229.338 33.2324C229.755 33.5856 230.428 33.7622 231.357 33.7622H234.434L235.203 38.5783C234.626 38.771 233.921 38.9315 233.088 39.0599C232.255 39.2205 231.421 39.3328 230.588 39.3971C229.755 39.4934 229.049 39.5415 228.472 39.5415C226.325 39.5415 224.642 38.9636 223.424 37.8077C222.238 36.6519 221.645 35.0304 221.645 32.9435L221.597 8.57394H228.761ZM235.396 15.172V19.8436H217.463V15.4128L222.078 15.172H235.396Z" fill="white"/>
<path d="M246.461 15.172V38.9636H239.394V15.172H246.461ZM244.49 4.67289C245.9 4.67289 246.605 5.39531 246.605 6.84014V9.39268C246.605 10.8375 245.9 11.5599 244.49 11.5599H241.413C240.003 11.5599 239.297 10.8375 239.297 9.39268V6.84014C239.297 5.39531 240.003 4.67289 241.413 4.67289H244.49Z" fill="white"/>
<path d="M276.431 15.172L268.594 37.278C268.402 37.7917 268.098 38.2091 267.681 38.5302C267.296 38.8191 266.832 38.9636 266.287 38.9636H260.085C259.54 38.9636 259.059 38.8191 258.642 38.5302C258.258 38.2091 257.969 37.7917 257.777 37.278L249.94 15.172H257.489L261.864 30.0538C262.056 30.7602 262.232 31.4826 262.392 32.221C262.553 32.9595 262.713 33.6659 262.873 34.3401H263.498C263.691 33.6338 263.867 32.9274 264.027 32.221C264.219 31.4826 264.412 30.7602 264.604 30.0538L268.883 15.172H276.431Z" fill="white"/>
<path d="M290.548 14.5459C294.554 14.5459 297.423 15.2362 299.154 16.6168C300.916 17.9654 301.798 19.9881 301.798 22.6851C301.83 24.8684 301.285 26.5059 300.163 27.5976C299.041 28.6571 297.102 29.1869 294.346 29.1869H281.076V25.1895H292.375C293.464 25.1895 294.153 24.9648 294.442 24.5153C294.762 24.0337 294.923 23.3755 294.923 22.5407C294.891 21.4169 294.554 20.6463 293.913 20.2289C293.304 19.7794 292.262 19.5547 290.788 19.5547C289.474 19.5547 288.448 19.7313 287.711 20.0844C286.974 20.4376 286.461 21.1119 286.173 22.1072C285.884 23.1025 285.74 24.5474 285.74 26.4417C285.74 28.4324 285.916 29.9735 286.269 31.0652C286.621 32.1247 287.214 32.8632 288.048 33.2806C288.913 33.698 290.099 33.9067 291.605 33.9067C292.695 33.9067 294.041 33.8746 295.644 33.8104C297.279 33.714 298.913 33.5696 300.548 33.3769L301.221 37.7596C300.291 38.2091 299.234 38.5623 298.048 38.8191C296.862 39.076 295.644 39.2526 294.394 39.3489C293.144 39.4773 291.942 39.5415 290.788 39.5415C287.775 39.5415 285.339 39.1081 283.48 38.2412C281.653 37.3422 280.323 35.9776 279.49 34.1475C278.688 32.3174 278.288 29.9735 278.288 27.116C278.288 24.0015 278.704 21.5293 279.538 19.6992C280.371 17.869 281.685 16.5526 283.48 15.7499C285.275 14.9473 287.631 14.5459 290.548 14.5459Z" fill="white"/>
<path d="M127.913 51.7931C129.548 51.7931 131.326 51.8895 133.25 52.0821C135.173 52.2426 137.048 52.5958 138.875 53.1416L138.394 58.0059C136.984 57.9738 135.333 57.9417 133.442 57.9096C131.551 57.8775 129.692 57.8614 127.865 57.8614C126.967 57.8614 126.198 57.8935 125.557 57.9577C124.948 57.9899 124.451 58.1183 124.067 58.343C123.682 58.5357 123.41 58.8407 123.249 59.2581C123.089 59.6755 123.009 60.2534 123.009 60.9919C123.009 62.1157 123.265 62.9344 123.778 63.4481C124.323 63.9618 125.237 64.4274 126.519 64.8448L132.913 66.9157C135.573 67.8147 137.416 69.0348 138.442 70.576C139.468 72.1171 139.98 74.1399 139.98 76.6443C139.98 78.5386 139.756 80.1119 139.307 81.3641C138.859 82.6162 138.154 83.5955 137.192 84.3019C136.23 85.0082 134.964 85.5059 133.394 85.7949C131.823 86.116 129.9 86.2765 127.625 86.2765C126.535 86.2765 124.98 86.1962 122.961 86.0357C120.942 85.9072 118.634 85.5541 116.038 84.9761L116.519 79.7747C118.41 79.8068 120.044 79.855 121.422 79.9192C122.833 79.9513 124.035 79.9834 125.028 80.0155C126.022 80.0155 126.887 80.0155 127.625 80.0155C128.907 80.0155 129.9 79.9353 130.605 79.7747C131.343 79.6142 131.855 79.2931 132.144 78.8115C132.432 78.3299 132.577 77.6396 132.577 76.7406C132.577 75.97 132.464 75.36 132.24 74.9105C132.048 74.4288 131.711 74.0596 131.23 73.8028C130.782 73.5138 130.157 73.2569 129.355 73.0322L122.624 70.7204C120.092 69.7893 118.297 68.5693 117.24 67.0602C116.182 65.5512 115.653 63.5605 115.653 61.0882C115.653 59.1618 115.878 57.6046 116.326 56.4166C116.807 55.1965 117.528 54.2493 118.49 53.5751C119.483 52.9008 120.749 52.4353 122.288 52.1784C123.858 51.9216 125.733 51.7931 127.913 51.7931Z" fill="white"/>
<path d="M151.949 61.8588V85.6504H144.881V61.8588H151.949ZM149.978 51.3597C151.388 51.3597 152.093 52.0821 152.093 53.5269V56.0795C152.093 57.5243 151.388 58.2467 149.978 58.2467H146.901C145.49 58.2467 144.785 57.5243 144.785 56.0795V53.5269C144.785 52.0821 145.49 51.3597 146.901 51.3597H149.978Z" fill="white"/>
<path d="M168.553 61.2327C171.31 61.2327 173.489 61.4896 175.092 62.0033C176.727 62.517 177.896 63.3197 178.602 64.4113C179.339 65.503 179.707 66.9639 179.707 68.794C179.707 70.5599 179.355 72.0047 178.65 73.1285C177.945 74.2202 176.759 75.0228 175.092 75.5366C173.457 76.0503 171.262 76.3071 168.505 76.3071C165.749 76.3071 163.537 76.0503 161.871 75.5366C160.236 75.0228 159.05 74.2202 158.313 73.1285C157.608 72.0368 157.255 70.592 157.255 68.794C157.255 66.996 157.608 65.5512 158.313 64.4595C159.05 63.3357 160.252 62.517 161.919 62.0033C163.585 61.4896 165.797 61.2327 168.553 61.2327ZM168.505 65.6154C166.742 65.6154 165.524 65.8562 164.851 66.3378C164.178 66.7873 163.842 67.606 163.842 68.794C163.842 69.982 164.178 70.8168 164.851 71.2984C165.524 71.78 166.742 72.0208 168.505 72.0208C170.268 72.0208 171.47 71.78 172.111 71.2984C172.752 70.8168 173.073 69.982 173.073 68.794C173.073 67.606 172.752 66.7873 172.111 66.3378C171.47 65.8562 170.268 65.6154 168.505 65.6154ZM182.448 61.8588L182.063 64.893L175.717 65.7117L173.986 61.8588H182.448ZM161.342 74.8623L164.899 75.4884C164.451 75.7453 164.13 76.1466 163.938 76.6924C163.778 77.2383 163.826 77.752 164.082 78.2336C164.339 78.7152 164.899 79.0042 165.765 79.1005L174.515 80.1119C177.015 80.3687 178.778 81.0751 179.804 82.2309C180.829 83.3547 181.342 85.0082 181.342 87.1915C181.342 89.2464 180.925 90.8197 180.092 91.9113C179.259 93.0351 177.928 93.8057 176.102 94.2231C174.275 94.6405 171.839 94.8492 168.794 94.8492C166.294 94.8492 164.226 94.7207 162.592 94.4639C160.989 94.2391 159.707 93.8538 158.745 93.308C157.816 92.7622 157.159 92.0398 156.774 91.1408C156.422 90.2738 156.245 89.1822 156.245 87.8658C156.245 86.8705 156.422 86.0196 156.774 85.3133C157.127 84.5748 157.72 83.9166 158.553 83.3387C159.419 82.7607 160.62 82.2309 162.159 81.7493L165.669 80.4972L168.217 81.5085L166.294 82.7607C165.492 83.3387 164.835 83.8363 164.322 84.2537C163.842 84.639 163.489 85.0243 163.265 85.4096C163.072 85.7949 162.976 86.3086 162.976 86.9507C162.976 87.6892 163.137 88.2511 163.457 88.6364C163.778 89.0538 164.355 89.3267 165.188 89.4551C166.053 89.6157 167.223 89.6959 168.698 89.6959C170.236 89.6959 171.438 89.6157 172.303 89.4551C173.169 89.3267 173.762 89.0698 174.082 88.6845C174.435 88.2992 174.611 87.7534 174.611 87.0471C174.611 86.437 174.483 85.9875 174.227 85.6986C174.002 85.4096 173.601 85.2009 173.025 85.0725C172.48 84.9119 171.71 84.7674 170.717 84.639L163.265 83.8203C162.015 83.6918 161.037 83.3547 160.332 82.8089C159.627 82.2631 159.13 81.6049 158.842 80.8343C158.585 80.0316 158.521 79.2289 158.649 78.4262C158.778 77.6235 159.066 76.9011 159.515 76.259C159.995 75.6168 160.604 75.1513 161.342 74.8623Z" fill="white"/>
<path d="M202.451 61.2327C206.938 61.2327 209.182 63.4321 209.182 67.8308V85.6504H202.018V70.0462C202.018 68.9866 201.826 68.2642 201.441 67.8789C201.089 67.4615 200.448 67.2528 199.518 67.2528C198.492 67.2528 197.435 67.4455 196.345 67.8308C195.255 68.2161 193.909 68.8422 192.306 69.7091L191.681 66.0007C193.444 64.4595 195.239 63.2876 197.066 62.4849C198.893 61.6501 200.688 61.2327 202.451 61.2327ZM193.028 51.9376L193.076 60.1732C193.076 61.4253 192.995 62.6133 192.835 63.7371C192.707 64.8608 192.547 65.808 192.354 66.5786L193.028 67.2047V85.6504H185.912V51.9376H193.028Z" fill="white"/>
<path d="M224.066 55.2607V78.0409C224.066 78.9078 224.258 79.5339 224.643 79.9192C225.059 80.2724 225.733 80.449 226.662 80.449H229.739L230.508 85.2651C229.931 85.4578 229.226 85.6183 228.393 85.7467C227.559 85.9073 226.726 86.0196 225.893 86.0838C225.059 86.1802 224.354 86.2283 223.777 86.2283C221.63 86.2283 219.947 85.6504 218.729 84.4945C217.543 83.3387 216.95 81.7172 216.95 79.6302L216.902 55.2607H224.066ZM230.701 61.8588V66.5304H212.768V62.0996L217.383 61.8588H230.701Z" fill="white"/>
<path d="M259.017 51.745C260.46 51.745 261.774 51.7931 262.96 51.8895C264.146 51.9858 265.267 52.1142 266.325 52.2747C267.415 52.4353 268.473 52.6761 269.498 52.9972L268.921 58.343C267.799 58.2788 266.71 58.2307 265.652 58.1986C264.594 58.1665 263.537 58.1504 262.479 58.1504C261.421 58.1183 260.315 58.1022 259.161 58.1022C257.783 58.1022 256.629 58.2467 255.7 58.5357C254.802 58.8247 254.081 59.3705 253.536 60.1732C252.991 60.9437 252.591 62.0675 252.334 63.5444C252.11 64.9893 251.998 66.8515 251.998 69.1311C251.998 71.8924 252.174 74.0596 252.527 75.6329C252.879 77.2061 253.472 78.3299 254.306 79.0042C255.139 79.6463 256.261 79.9674 257.671 79.9674C258.633 79.9674 259.514 79.8711 260.315 79.6784C261.117 79.4858 261.854 79.2289 262.527 78.9078C263.2 78.5547 263.825 78.2175 264.402 77.8965L265.171 81.3641C264.69 82.0383 263.969 82.7607 263.008 83.5313C262.078 84.3019 260.94 84.9601 259.594 85.5059C258.248 86.0517 256.71 86.3246 254.979 86.3246C252.479 86.3246 250.427 85.7307 248.825 84.5427C247.254 83.3547 246.1 81.4925 245.363 78.956C244.626 76.3874 244.257 73.0643 244.257 68.9866C244.257 64.6521 244.722 61.2327 245.652 58.7283C246.613 56.224 248.168 54.442 250.315 53.3824C252.495 52.2908 255.395 51.745 259.017 51.745ZM270.652 66.4823V85.6504H265.219L264.21 80.5935L263.537 79.245V66.4823H270.652Z" fill="white"/>
<path d="M281.635 61.8588L282.5 66.5786L283.173 67.2047V85.6504H276.058V61.8588H281.635ZM293.222 61.2327L292.548 67.8308H290.577C289.455 67.8308 288.286 67.9913 287.068 68.3124C285.85 68.6335 284.311 69.1151 282.452 69.7572L281.971 65.7599C283.638 64.2829 285.321 63.1592 287.02 62.3886C288.718 61.618 290.369 61.2327 291.972 61.2327H293.222Z" fill="white"/>
<path d="M307.498 61.2327C310.479 61.2327 312.867 61.6501 314.662 62.4849C316.456 63.2876 317.739 64.604 318.508 66.4341C319.309 68.2642 319.71 70.7204 319.71 73.8028C319.71 76.8209 319.309 79.245 318.508 81.0751C317.739 82.9052 316.456 84.2216 314.662 85.0243C312.867 85.827 310.479 86.2283 307.498 86.2283C304.549 86.2283 302.161 85.827 300.334 85.0243C298.54 84.2216 297.241 82.9052 296.44 81.0751C295.639 79.245 295.238 76.8209 295.238 73.8028C295.238 70.7204 295.639 68.2642 296.44 66.4341C297.241 64.604 298.54 63.2876 300.334 62.4849C302.161 61.6501 304.549 61.2327 307.498 61.2327ZM307.498 66.4341C306.28 66.4341 305.318 66.6428 304.613 67.0602C303.908 67.4776 303.411 68.2161 303.123 69.2756C302.834 70.3352 302.69 71.8442 302.69 73.8028C302.69 75.7292 302.834 77.2222 303.123 78.2817C303.411 79.3413 303.908 80.0798 304.613 80.4972C305.318 80.8824 306.28 81.0751 307.498 81.0751C308.716 81.0751 309.678 80.8824 310.383 80.4972C311.088 80.0798 311.585 79.3413 311.873 78.2817C312.162 77.2222 312.306 75.7292 312.306 73.8028C312.306 71.8442 312.162 70.3352 311.873 69.2756C311.585 68.2161 311.088 67.4776 310.383 67.0602C309.678 66.6428 308.716 66.4341 307.498 66.4341Z" fill="white"/>
<path d="M331.529 61.8588V77.5112C331.529 78.5065 331.738 79.2129 332.154 79.6302C332.603 80.0476 333.308 80.2563 334.27 80.2563C335.263 80.2563 336.241 80.0798 337.203 79.7266C338.196 79.3413 339.414 78.7473 340.856 77.9446L341.433 81.8457C339.703 83.3547 338.004 84.4785 336.337 85.2169C334.67 85.9554 332.956 86.3246 331.193 86.3246C326.674 86.3246 324.414 84.1092 324.414 79.6784V61.8588H331.529ZM347.251 61.8588V85.6504H341.626L340.808 80.9788L340.135 80.3045V61.8588H347.251Z" fill="white"/>
<path d="M368.683 61.2809C371.663 61.2809 373.795 62.3725 375.077 64.5558C376.359 66.7391 377 69.8696 377 73.9473C377 77.1259 376.663 79.6142 375.99 81.4122C375.349 83.2102 374.356 84.4785 373.01 85.2169C371.695 85.9233 370.045 86.2765 368.058 86.2765C366.359 86.2765 364.74 86.0357 363.202 85.5541C361.663 85.0725 360.301 84.2698 359.115 83.146L359.596 79.9674C360.654 80.2885 361.615 80.5774 362.481 80.8343C363.378 81.059 364.388 81.1714 365.509 81.1714C366.535 81.1714 367.352 80.9948 367.961 80.6416C368.57 80.2885 369.003 79.5981 369.259 78.5707C369.548 77.5112 369.692 75.9861 369.692 73.9954C369.692 72.0368 369.564 70.5439 369.308 69.5164C369.051 68.4569 368.634 67.7345 368.058 67.3492C367.481 66.9318 366.727 66.7231 365.798 66.7231C364.772 66.7231 363.827 66.9318 362.961 67.3492C362.096 67.7345 361.118 68.2963 360.029 69.0348L359.115 65.7599C359.756 64.893 360.573 64.1224 361.567 63.4481C362.593 62.7739 363.715 62.2441 364.932 61.8588C366.15 61.4735 367.4 61.2809 368.683 61.2809ZM358.827 61.8588L359.5 66.1933L360.173 66.9157V82.3754L359.932 82.9534C360.029 83.9166 360.093 84.9119 360.125 85.9394C360.189 86.9989 360.205 88.0424 360.173 89.0698V94.801H353.057V61.8588H358.827Z" fill="white"/>
<path d="M28.7189 63.5183C29.1848 71.3585 29.1848 81.0193 28.7189 92.406C19.3989 88.1123 12.2209 82.1857 7.23423 74.5787C1.68879 65.9914 -0.642531 55.9114 0.150926 44.2441C0.756967 35.1901 3.8327 27.0711 9.42544 19.8377C14.3648 13.4446 20.6109 8.4037 28.3003 4.67127C28.3458 4.71863 28.3931 4.81158 28.4859 4.85718C28.6261 4.90454 28.6716 4.95015 28.7189 4.95015C29.2321 14.4706 29.2321 23.9911 28.7189 33.5572C24.7113 34.3044 21.7757 34.5377 19.9103 34.0711C19.3971 33.231 19.1642 31.5507 19.3971 29.0776C19.5845 26.5115 19.4899 24.9242 19.1641 24.177C17.6263 24.6909 15.9483 26.5571 14.0846 29.8704C9.79679 37.3843 8.39906 46.2979 10.0298 56.6568C11.0544 63.7972 14.0373 69.4431 18.8839 73.6912C19.4426 72.944 19.6756 71.4514 19.4899 69.1643C19.3498 66.2246 19.3043 64.3567 19.3971 63.5165C22.5201 63.0026 25.5959 63.0026 28.7172 63.5165L28.7189 63.5183Z" fill="white"/>
<path d="M62.7386 43.6373C63.159 60.2508 63.159 76.9117 62.7386 93.5725C58.8239 95.2055 54.1174 95.9526 48.5702 96C42.9302 96 38.2711 95.2528 34.5893 93.5725C33.9359 86.9917 33.8904 76.7714 34.3563 62.9116C36.0798 62.1188 39.11 62.0241 43.4434 62.631C43.6291 63.0519 43.6291 67.4386 43.4434 75.7909C43.3033 82.1385 43.3961 85.6376 43.7237 86.2445C44.2824 87.1776 45.6346 87.6915 47.8713 87.6441C49.735 87.6441 51.3675 87.3635 52.858 86.7567C53.6497 76.5363 53.7899 65.3356 53.2784 53.2964C51.4603 52.7369 48.4319 52.6439 44.0968 52.7369C39.4359 52.8298 36.2673 52.7369 34.5893 52.5036C34.1234 26.7888 34.0305 9.94208 34.3563 2.00893C38.0854 0.609276 42.8391 -0.0449611 48.5247 0.00239572C53.9773 0.0497526 58.6838 0.749593 62.7386 2.00893C63.159 12.4625 63.159 22.8687 62.7386 33.1838C59.803 33.7433 56.8201 33.7433 53.8372 33.1838C53.6042 30.3371 53.5114 26.4644 53.5114 21.5638C53.5587 14.9374 53.6042 10.9699 53.6042 9.6176C52.7179 8.87042 51.1801 8.40385 49.0362 8.35825C46.8922 8.31265 45.2142 8.49857 43.9566 9.05808C43.6764 12.7449 43.5835 18.2979 43.6308 25.5786C43.6781 35.1464 43.7237 40.6995 43.7237 42.3324C44.7483 42.799 48.9906 43.0796 56.3997 43.3585L62.7386 43.6391V43.6373Z" fill="white"/>
<path d="M78.9114 86.1055C74.578 89.4661 71.0818 91.5182 68.2391 92.1251V6.06894C68.2391 5.69534 68.472 5.41646 68.7523 5.27615C81.5212 10.8292 89.9567 20.3496 94.0589 33.8832C90.0513 34.3024 87.1157 34.4427 85.2502 34.1638C84.5514 33.5569 83.5722 31.7837 82.1745 28.937C81.1025 26.6499 79.8449 25.1572 78.3999 24.503C77.5136 36.3107 77.3752 52.6908 77.8411 73.691C79.612 72.8982 81.6158 70.0971 83.9471 65.2913C85.9509 61.1379 87.0701 57.4984 87.1629 54.4641C87.1156 53.9046 86.5096 53.624 85.3921 53.624C83.9471 53.624 83.1554 53.5766 82.968 53.438C82.4548 50.4984 82.4548 47.5114 82.968 44.5718C87.4887 44.1052 92.055 44.1052 96.5303 44.5718C97.6951 61.8851 91.8238 75.6993 78.9148 86.1055H78.9114Z" fill="white"/>
</svg>
